<svg width="42" height="32" viewBox="0 0 42 32" fill="none" xmlns="http://www.w3.org/2000/svg">
<path d="M38.649 3.4134C34.7229 -0.52932 28.3492 -0.52932 24.4232 3.4134L20.7968 7.05515L27.9097 14.1982C31.8258 18.1309 31.8358 24.5014 27.9396 28.4441L38.649 17.6895C42.5751 13.7568 42.5751 7.35612 38.649 3.4134Z" fill="#EC008C"/>
<path d="M13.6839 14.1982L20.7968 7.05515L17.1704 3.4134C13.2443 -0.52932 6.87065 -0.52932 2.94457 3.4134C-0.981522 7.35612 -0.981522 13.7568 2.94457 17.6995L13.6539 28.4542C9.75778 24.5014 9.76777 18.1309 13.6839 14.1982Z" fill="#00AEEF"/>
<path d="M27.9396 28.4542C31.8358 24.5115 31.8258 18.1409 27.9097 14.2082L20.7968 7.06519L13.6839 14.1982C9.76776 18.1309 9.75777 24.5014 13.6539 28.4442L13.6938 28.4742C15.6519 30.4506 18.2293 31.4338 20.8068 31.4338C23.3842 31.4338 25.9516 30.4506 27.9197 28.4742L27.9396 28.4542Z" fill="#2E3192"/>
</svg>
