<svg width="149" height="32" viewBox="0 0 149 32" fill="none" xmlns="http://www.w3.org/2000/svg">
<path d="M55.2875 0.550049C57.3275 0.550049 58.8175 1.23005 59.7075 1.82005C60.3475 2.29005 60.4075 2.91005 59.9775 3.59005L59.3975 4.56005C58.9675 5.28005 58.3875 5.36005 57.6675 4.93005C56.9975 4.56005 56.2175 4.29005 55.4775 4.29005C52.8875 4.29005 52.0675 6.08005 52.0675 7.68005C52.0675 9.33005 53.0075 11.28 55.4575 11.28C56.3375 11.28 57.2075 10.91 57.8975 10.44C58.5975 9.97005 59.2075 9.99005 59.6675 10.69L60.3475 11.62C60.7775 12.26 60.7575 12.93 60.1175 13.39C59.1675 14.13 57.5475 15.01 55.2675 15.01C50.6875 15.01 47.8275 11.93 47.8275 7.76005C47.8175 3.71005 50.8775 0.550049 55.2875 0.550049Z" fill="#2E3192"/>
<path d="M61.8075 2.05003C61.8075 1.21003 62.2575 0.780029 63.0775 0.780029H64.6575C65.4775 0.780029 65.9275 1.21003 65.9275 2.05003V9.55003C65.9275 10.72 66.6875 11.28 67.8375 11.28C69.0075 11.28 69.7675 10.72 69.7675 9.57003V2.05003C69.7675 1.21003 70.1975 0.780029 71.0375 0.780029H72.5975C73.4375 0.780029 73.8675 1.21003 73.8675 2.05003V9.55003C73.8675 12.73 71.5075 15.02 67.8675 15.02C64.1875 15.02 61.8275 12.72 61.8275 9.55003V2.05003H61.8075Z" fill="#2E3192"/>
<path d="M75.8675 2.05003C75.8675 1.21003 76.3175 0.780029 77.1575 0.780029H78.7175C79.5575 0.780029 79.9875 1.21003 79.9875 2.05003V13.52C79.9875 14.34 79.5575 14.79 78.7175 14.79H77.1575C76.3175 14.79 75.8675 14.34 75.8675 13.52V2.05003Z" fill="#2E3192"/>
<path d="M87.1075 11.28C89.1375 11.28 90.2975 10.07 90.2975 7.76003C90.2975 5.45003 89.0475 4.29003 87.1075 4.29003H86.2275V11.28H87.1075ZM82.1175 2.05003C82.1175 1.21003 82.5675 0.780029 83.4075 0.780029H87.2475C91.7275 0.780029 94.5475 3.35003 94.5475 7.75003C94.5475 12.13 91.7275 14.78 87.2475 14.78H83.4075C82.5675 14.78 82.1175 14.33 82.1175 13.51V2.05003Z" fill="#2E3192"/>
<path d="M102.277 9.10004L101.847 7.15004C101.597 6.20004 101.267 4.56004 101.267 4.56004H101.228C101.228 4.56004 100.918 6.20004 100.658 7.15004L100.188 9.10004H102.277ZM98.7575 1.82004C98.9875 1.12004 99.4375 0.790039 100.197 0.790039H102.317C103.057 0.790039 103.528 1.12004 103.758 1.82004L107.557 13.33C107.867 14.21 107.437 14.79 106.527 14.79H104.947C104.187 14.79 103.738 14.44 103.508 13.72L103.218 12.36H99.2575L98.9675 13.72C98.7775 14.44 98.3075 14.79 97.5675 14.79H95.9875C95.0675 14.79 94.6475 14.2 94.9575 13.33L98.7575 1.82004Z" fill="#2E3192"/>
<path d="M113.847 11.28C115.877 11.28 117.037 10.07 117.037 7.76003C117.037 5.45003 115.787 4.29003 113.847 4.29003H112.967V11.28H113.847ZM108.867 2.05003C108.867 1.21003 109.317 0.780029 110.157 0.780029H113.997C118.477 0.780029 121.307 3.35003 121.307 7.75003C121.307 12.13 118.487 14.78 113.997 14.78H110.157C109.317 14.78 108.867 14.33 108.867 13.51V2.05003Z" fill="#2E3192"/>
<path d="M129.647 11.28C131.517 11.28 132.807 9.74005 132.807 7.70005C132.807 5.75005 131.517 4.29005 129.647 4.29005C127.797 4.29005 126.507 5.75005 126.507 7.70005C126.507 9.74005 127.797 11.28 129.647 11.28ZM129.647 0.550049C134.087 0.550049 137.047 3.69005 137.047 7.70005C137.047 11.81 134.087 15.02 129.647 15.02C125.207 15.02 122.267 11.81 122.267 7.70005C122.267 3.69005 125.207 0.550049 129.647 0.550049Z" fill="#2E3192"/>
<path d="M138.198 11.9101L138.938 10.8401C139.408 10.1601 139.928 10.1201 140.688 10.5301C141.138 10.7101 141.918 11.3301 143.008 11.3301C143.808 11.3301 144.038 11.0401 144.038 10.7101C144.038 9.23006 138.118 9.52006 138.118 5.04006C138.118 2.35006 140.338 0.560059 143.318 0.560059C144.938 0.560059 146.488 1.09006 147.218 1.57006C147.898 2.06006 147.958 2.64006 147.628 3.32006L147.058 4.43006C146.588 5.34006 145.968 5.19006 145.328 4.88006C144.628 4.57006 144.098 4.26006 143.258 4.26006C142.478 4.26006 142.208 4.53006 142.208 4.90006C142.208 6.50006 148.148 5.99006 148.148 10.4901C148.148 12.9101 146.318 15.0301 143.008 15.0301C141.078 15.0301 139.248 14.2901 138.448 13.6701C137.958 13.2901 137.588 12.7801 138.198 11.9101Z" fill="#2E3192"/>
<path d="M52.9475 25.0101C54.9375 25.0101 56.2575 23.8201 56.2575 21.7801C56.2575 19.7301 54.9275 18.5901 52.9475 18.5901H49.3475V25.0201H52.9475V25.0101ZM48.4975 18.1401C48.4975 17.9301 48.6175 17.8101 48.8275 17.8101H52.9775C55.3575 17.8101 57.1275 19.3101 57.1275 21.7801C57.1275 24.2501 55.3575 25.7901 52.9775 25.7901H49.3375V31.1101C49.3375 31.3201 49.2175 31.4401 49.0075 31.4401H48.8275C48.6175 31.4401 48.4975 31.3201 48.4975 31.1101V18.1401Z" fill="#2E3192"/>
<path d="M58.8675 18.1401C58.8675 17.9301 58.9875 17.8101 59.1975 17.8101H65.9975C66.2075 17.8101 66.3275 17.9301 66.3275 18.1401V18.2601C66.3275 18.4701 66.2075 18.5901 65.9975 18.5901H59.6975V24.1801H64.7975C65.0175 24.1801 65.1275 24.3001 65.1275 24.5101V24.6301C65.1275 24.8401 65.0075 24.9601 64.7975 24.9601H59.6975V30.6701H66.3575C66.5675 30.6701 66.6875 30.7901 66.6875 31.0001V31.1201C66.6875 31.3301 66.5675 31.4501 66.3575 31.4501H59.1975C58.9875 31.4501 58.8675 31.3301 58.8675 31.1201V18.1401Z" fill="#2E3192"/>
<path d="M68.6175 18.1401C68.6175 17.9301 68.7375 17.8101 68.9475 17.8101H69.1275C69.3375 17.8101 69.4575 17.9301 69.4575 18.1401V30.6701H75.6275C75.8375 30.6701 75.9575 30.7901 75.9575 31.0001V31.1201C75.9575 31.3301 75.8375 31.4501 75.6275 31.4501H68.9475C68.7375 31.4501 68.6175 31.3301 68.6175 31.1201V18.1401Z" fill="#2E3192"/>
<path d="M83.5475 25.9501L81.4875 20.4201C81.2675 19.8301 80.9775 18.7801 80.9775 18.7801H80.9375C80.9375 18.7801 80.6475 19.8301 80.4275 20.4201L78.3475 25.9501H83.5475ZM80.4075 18.0801C80.4675 17.8901 80.5975 17.8101 80.7775 17.8101H81.1275C81.2975 17.8101 81.4375 17.8901 81.4975 18.0801L86.3675 31.0501C86.4475 31.2801 86.3475 31.4401 86.0975 31.4401H85.8875C85.7075 31.4401 85.5775 31.3601 85.5175 31.1901L83.8475 26.7301H78.0575L76.3975 31.1701C76.3375 31.3601 76.2075 31.4401 76.0275 31.4401H75.8175C75.5675 31.4401 75.4675 31.2801 75.5475 31.0501L80.4075 18.0801Z" fill="#2E3192"/>
<path d="M87.5575 18.9001C87.2475 18.0201 87.6575 17.4401 88.5875 17.4401H90.3975C91.1575 17.4401 91.6275 17.7901 91.8175 18.5101L93.5075 24.5301C93.7775 25.4601 94.0375 26.9301 94.0375 26.9301H94.0775C94.0775 26.9301 94.3075 25.4701 94.6075 24.5301L96.3175 18.5101C96.5275 17.7901 96.9975 17.4401 97.7575 17.4401H99.4875C100.427 17.4401 100.827 18.0201 100.517 18.9001L96.5475 30.4301C96.2975 31.1101 95.8275 31.4401 95.0875 31.4401H93.0075C92.2675 31.4401 91.7975 31.1101 91.5475 30.4301L87.5575 18.9001Z" fill="#2E3192"/>
<path d="M101.758 18.7001C101.758 17.8601 102.208 17.4301 103.048 17.4301H104.608C105.448 17.4301 105.878 17.8601 105.878 18.7001V30.1701C105.878 30.9901 105.448 31.4401 104.608 31.4401H103.048C102.208 31.4401 101.758 30.9901 101.758 30.1701V18.7001Z" fill="#2E3192"/>
<path d="M112.988 27.9301C115.018 27.9301 116.178 26.7201 116.178 24.4101C116.178 22.1001 114.928 20.9401 112.988 20.9401H112.108V27.9301H112.988ZM108.008 18.7001C108.008 17.8601 108.458 17.4301 109.298 17.4301H113.138C117.618 17.4301 120.448 20.0001 120.448 24.4001C120.448 28.7801 117.618 31.4301 113.138 31.4301H109.298C108.458 31.4301 108.008 30.9801 108.008 30.1601V18.7001Z" fill="#2E3192"/>
<path d="M128.168 25.7501L127.738 23.8001C127.488 22.8501 127.158 21.2101 127.158 21.2101H127.118C127.118 21.2101 126.808 22.8501 126.548 23.8001L126.078 25.7501H128.168ZM124.638 18.4701C124.868 17.7701 125.318 17.4401 126.078 17.4401H128.198C128.938 17.4401 129.408 17.7701 129.638 18.4701L133.438 29.9801C133.748 30.8601 133.318 31.4401 132.408 31.4401H130.828C130.068 31.4401 129.618 31.0901 129.388 30.3701L129.098 29.0101H125.148L124.858 30.3701C124.668 31.0901 124.198 31.4401 123.458 31.4401H121.878C120.958 31.4401 120.538 30.8601 120.848 29.9801L124.638 18.4701Z" fill="#2E3192"/>
<path d="M38.6875 3.49999C34.7575 -0.43001 28.3775 -0.43001 24.4475 3.49999L20.8175 7.12999L27.9375 14.25C31.8575 18.17 31.8675 24.52 27.9675 28.45L38.6875 17.73C42.6175 13.81 42.6175 7.42999 38.6875 3.49999Z" fill="#EC008C"/>
<path d="M13.6975 14.25L20.8175 7.12999L17.1875 3.49999C13.2575 -0.43001 6.8775 -0.43001 2.9475 3.49999C-0.9825 7.42999 -0.9825 13.81 2.9475 17.74L13.6675 28.46C9.7675 24.52 9.7775 18.17 13.6975 14.25Z" fill="#00AEEF"/>
<path d="M27.9675 28.46C31.8675 24.53 31.8575 18.18 27.9375 14.26L20.8175 7.14001L13.6975 14.25C9.77749 18.17 9.76749 24.52 13.6675 28.45L13.7075 28.48C15.6675 30.45 18.2475 31.43 20.8275 31.43C23.4075 31.43 25.9775 30.45 27.9475 28.48L27.9675 28.46Z" fill="#2E3192"/>
</svg>
